<svg width="27" height="28" viewBox="0 0 27 28" fill="none" xmlns="http://www.w3.org/2000/svg">
<path d="M20.4191 12.371C20.0401 12.7523 19.7499 13.2125 19.569 13.7187C19.3882 14.225 19.3213 14.7649 19.373 15.3L19.355 15.282C19.4082 15.9119 19.3232 16.5457 19.1061 17.1394C18.889 17.733 18.5451 18.2721 18.0982 18.7191C17.6512 19.166 17.112 19.5101 16.5183 19.7271C15.9247 19.9442 15.2908 20.0292 14.661 19.976L14.6791 19.994C13.9257 19.9239 13.1689 20.0878 12.512 20.4635C11.8552 20.8392 11.3302 21.4083 11.0087 22.0933C10.6872 22.7783 10.5847 23.5457 10.7153 24.2911C10.846 25.0364 11.2033 25.7233 11.7386 26.2581C12.2739 26.7929 12.9611 27.1496 13.7065 27.2795C14.452 27.4095 15.2193 27.3063 15.904 26.9842C16.5887 26.662 17.1573 26.1366 17.5324 25.4794C17.9075 24.8222 18.0708 24.0654 18 23.312L18.019 23.33C17.9658 22.7002 18.0507 22.0663 18.2678 21.4726C18.4849 20.879 18.829 20.3399 19.2759 19.8929C19.7229 19.446 20.262 19.1019 20.8556 18.8849C21.4494 18.6678 22.0831 18.5828 22.713 18.636L22.694 18.618C23.3095 18.6733 23.929 18.5724 24.4951 18.3246C25.0611 18.0768 25.5554 17.6901 25.9322 17.2004C26.309 16.7107 26.5562 16.1337 26.6507 15.5231C26.7451 14.9124 26.684 14.2878 26.4727 13.707C26.2615 13.1263 25.9071 12.6083 25.4424 12.201C24.9777 11.7937 24.4178 11.5103 23.8144 11.3771C23.2109 11.2439 22.5837 11.2651 21.9907 11.4388C21.3976 11.6126 20.8582 11.9332 20.4221 12.371H20.4191Z" fill="white"/>
<path d="M13.0419 17.636L13.0229 17.618C13.5582 17.6719 14.0988 17.6062 14.6057 17.4256C15.1125 17.245 15.5729 16.9541 15.9535 16.5738C16.334 16.1935 16.6254 15.7333 16.8063 15.2266C16.9873 14.7199 17.0534 14.1794 16.9999 13.644L17.0189 13.662C16.9657 13.0321 17.0507 12.3983 17.2677 11.8046C17.4848 11.211 17.8289 10.6719 18.2758 10.2249C18.7228 9.778 19.2619 9.4339 19.8555 9.2169C20.4492 8.99976 21.083 8.91483 21.7129 8.968L21.6939 8.95C22.4474 9.0208 23.2043 8.85736 23.8615 8.4821C24.5188 8.10684 25.0442 7.53797 25.3662 6.8531C25.6882 6.16824 25.7911 5.40071 25.6609 4.6552C25.5307 3.90969 25.1737 3.22251 24.6385 2.68737C24.1034 2.15224 23.4162 1.7952 22.6707 1.66498C21.9252 1.53475 21.1577 1.63766 20.4728 1.95968C19.7879 2.28169 19.2191 2.80714 18.8438 3.46435C18.4685 4.12155 18.3051 4.87852 18.3759 5.632L18.3579 5.613C18.4112 6.24289 18.3264 6.87683 18.1094 7.47055C17.8924 8.06427 17.5483 8.60346 17.1014 9.0505C16.6544 9.4974 16.1152 9.8415 15.5215 10.0585C14.9277 10.2755 14.2938 10.3603 13.6639 10.307L13.6819 10.326C13.1466 10.2721 12.6059 10.3378 12.0991 10.5184C11.5923 10.6989 11.1319 10.9899 10.7513 11.3702C10.3707 11.7505 10.0794 12.2107 9.89844 12.7174C9.71754 13.2241 9.65144 13.7646 9.70494 14.3L9.68694 14.282C9.73994 14.9118 9.65484 15.5456 9.43774 16.1392C9.22054 16.7327 8.87654 17.2718 8.42964 17.7187C7.98267 18.1656 7.44363 18.5096 6.85007 18.7268C6.25651 18.9439 5.62272 19.029 4.99291 18.976L5.01091 18.994C4.25743 18.9232 3.50046 19.0866 2.84325 19.4619C2.18605 19.8372 1.6606 20.406 1.33859 21.0909C1.01657 21.7758 0.91365 22.5433 1.04388 23.2888C1.17411 24.0343 1.53115 24.7215 2.06628 25.2566C2.60142 25.7918 3.2886 26.1488 4.03411 26.279C4.77962 26.4092 5.54715 26.3063 6.23202 25.9843C6.91688 25.6623 7.48575 25.1369 7.86101 24.4797C8.23634 23.8224 8.39974 23.0655 8.32894 22.312L8.34794 22.33C8.29474 21.7001 8.37974 21.0663 8.59684 20.4726C8.81384 19.879 9.15794 19.3399 9.60484 18.8929C10.0518 18.446 10.5909 18.1019 11.1845 17.8849C11.7782 17.6678 12.412 17.5828 13.0419 17.636Z" fill="white"/>
<path d="M6.34009 15.6289C6.71911 15.2477 7.00929 14.7875 7.18993 14.2812C7.37057 13.7749 7.43721 13.2349 7.38509 12.6999L7.40408 12.7179C7.35088 12.0879 7.43584 11.4538 7.65305 10.86C7.87026 10.2662 8.21446 9.727 8.66166 9.28C9.10886 8.83306 9.64816 8.48907 10.2421 8.27212C10.836 8.05516 11.4701 7.97046 12.1001 8.02394L12.0811 8.00594C12.8343 8.07651 13.591 7.91302 14.2479 7.53778C14.9048 7.16255 15.4299 6.59382 15.7518 5.90917C16.0736 5.22451 16.1764 4.45726 16.0462 3.71203C15.916 2.9668 15.559 2.27988 15.0241 1.74494C14.4892 1.21 13.8022 0.853079 13.057 0.722859C12.3118 0.592629 11.5445 0.695449 10.8599 1.01727C10.1752 1.33909 9.60646 1.86426 9.23126 2.52116C8.85596 3.17806 8.69246 3.93472 8.76306 4.68794L8.74506 4.66994C8.79826 5.29979 8.71326 5.93366 8.49616 6.5273C8.27906 7.12094 7.93511 7.66005 7.48815 8.10701C7.0412 8.55397 6.50208 8.898 5.90844 9.115C5.3148 9.3321 4.68094 9.4171 4.05109 9.3639L4.06909 9.3819C3.45366 9.3267 2.83425 9.4278 2.26827 9.6757C1.70229 9.9236 1.20804 10.3104 0.831329 10.8002C0.454619 11.2899 0.207639 11.8669 0.113259 12.4775C0.0188893 13.0882 0.0801793 13.7128 0.291449 14.2934C0.502719 14.8741 0.857149 15.392 1.32188 15.7992C1.78661 16.2065 2.34661 16.4898 2.94999 16.623C3.55336 16.7561 4.18059 16.7348 4.77356 16.5611C5.36652 16.3873 5.90602 16.0667 6.34208 15.6289H6.34009Z" fill="white"/>
</svg>
