<svg width="80" height="16" viewBox="0 0 80 16" fill="none" xmlns="http://www.w3.org/2000/svg">
<path d="M6.70002 15.2999C6.19332 15.2999 5.75671 15.2432 5.39001 15.1299C5.03001 15.0166 4.73002 14.9032 4.49002 14.7899C4.25672 14.6766 4.07002 14.6199 3.93002 14.6199C3.79002 14.6199 3.66331 14.6566 3.55001 14.7299C3.44331 14.8032 3.34002 14.8866 3.24002 14.9799C3.14002 15.0732 3.03331 15.1566 2.92001 15.2299C2.81331 15.3032 2.69332 15.3399 2.56002 15.3399C2.39332 15.3399 2.25331 15.2899 2.14001 15.1899C2.03331 15.0899 1.96001 14.9266 1.92001 14.6999L1.29002 11.2999C1.27002 11.1399 1.29332 11.0032 1.36002 10.8899C1.43332 10.7699 1.55671 10.6799 1.73001 10.6199C1.91671 10.5532 2.07671 10.5566 2.21001 10.6299C2.35001 10.6966 2.47332 10.8299 2.58002 11.0299C2.98672 11.8232 3.40001 12.4432 3.82001 12.8899C4.24002 13.3366 4.66671 13.6532 5.10001 13.8399C5.53331 14.0199 5.97672 14.1099 6.43002 14.1099C7.05002 14.1099 7.54002 13.9566 7.90002 13.6499C8.26672 13.3366 8.45331 12.9099 8.46001 12.3699C8.46001 12.0099 8.37332 11.6899 8.20002 11.4099C8.03332 11.1299 7.70672 10.8599 7.22002 10.5999C6.73332 10.3332 6.01672 10.0532 5.07001 9.75988C4.03672 9.43988 3.21002 9.06658 2.59002 8.63988C1.97002 8.20658 1.52002 7.69318 1.24002 7.09988C0.966717 6.49988 0.830017 5.79988 0.830017 4.99988C0.830017 4.16658 1.03002 3.42988 1.43002 2.78988C1.83672 2.14321 2.40671 1.63988 3.14001 1.27988C3.88001 0.919883 4.74672 0.739882 5.74002 0.739882C6.31332 0.739882 6.79001 0.796553 7.17001 0.909883C7.55671 1.01655 7.88001 1.12655 8.14001 1.23988C8.40001 1.34655 8.62001 1.39988 8.80001 1.39988C8.96001 1.39988 9.09332 1.34321 9.20002 1.22988C9.31332 1.10988 9.43001 0.993213 9.55001 0.879883C9.67671 0.759883 9.84331 0.699883 10.05 0.699883C10.2167 0.699883 10.36 0.756553 10.48 0.869883C10.6 0.976553 10.7033 1.17988 10.79 1.47988L11.71 4.81988C11.77 5.02658 11.7633 5.20988 11.69 5.36988C11.6167 5.52318 11.4933 5.62988 11.32 5.68988C11.1333 5.74318 10.97 5.73658 10.83 5.66988C10.69 5.59658 10.5733 5.46988 10.48 5.28988C10.0467 4.44318 9.59002 3.77655 9.11002 3.28988C8.63002 2.79655 8.14001 2.44655 7.64001 2.23988C7.14671 2.03321 6.65671 1.92988 6.17001 1.92988C5.56331 1.92988 5.08672 2.10321 4.74002 2.44988C4.39332 2.78988 4.22002 3.23655 4.22002 3.78988C4.22002 4.13658 4.30001 4.45658 4.46001 4.74988C4.62001 5.03658 4.93672 5.32318 5.41002 5.60988C5.89002 5.88988 6.59001 6.19318 7.51001 6.51988C8.54331 6.88658 9.36671 7.28658 9.98001 7.71988C10.5933 8.14658 11.0333 8.63658 11.3 9.18988C11.5733 9.73658 11.71 10.3766 11.71 11.1099C11.71 11.8832 11.51 12.5866 11.11 13.2199C10.71 13.8532 10.1367 14.3599 9.39001 14.7399C8.65001 15.1132 7.75332 15.2999 6.70002 15.2999ZM13.6391 6.57988L13.2291 6.43988C13.0824 6.38658 12.9757 6.31988 12.9091 6.23988C12.8424 6.15988 12.8091 6.06658 12.8091 5.95988C12.8091 5.80658 12.8624 5.68988 12.9691 5.60988C13.0757 5.52318 13.2124 5.47988 13.3791 5.47988H13.9691C14.1091 5.47988 14.2324 5.44988 14.3391 5.38988C14.4457 5.32988 14.5657 5.21988 14.6991 5.05988L16.1191 3.44988C16.2857 3.26321 16.4457 3.12321 16.5991 3.02988C16.7524 2.93655 16.9024 2.88988 17.0491 2.88988C17.2091 2.88988 17.3357 2.94321 17.4291 3.04988C17.5224 3.15655 17.5691 3.30655 17.5691 3.49988V11.7799C17.5691 12.2666 17.6557 12.6366 17.8291 12.8899C18.0091 13.1366 18.2591 13.2599 18.5791 13.2599C18.8257 13.2599 19.0157 13.2066 19.1491 13.0999C19.2824 12.9932 19.3891 12.8699 19.4691 12.7299C19.5557 12.5832 19.6391 12.4532 19.7191 12.3399C19.8057 12.2266 19.9191 12.1632 20.0591 12.1499C20.1657 12.1499 20.2524 12.1866 20.3191 12.2599C20.3857 12.3332 20.4191 12.4632 20.4191 12.6499C20.4124 13.1232 20.2691 13.5566 19.9891 13.9499C19.7091 14.3432 19.3191 14.6566 18.8191 14.8899C18.3257 15.1232 17.7624 15.2399 17.1291 15.2399C16.1624 15.2399 15.4091 15.0032 14.8691 14.5299C14.3357 14.0566 14.0691 13.3399 14.0691 12.3799V7.17988C14.0691 6.99988 14.0357 6.86988 13.9691 6.78988C13.9024 6.70318 13.7924 6.63318 13.6391 6.57988ZM16.2991 6.62988V5.47988H19.7691C19.9424 5.47988 20.0791 5.51658 20.1791 5.58988C20.2791 5.66318 20.3291 5.76658 20.3291 5.89988C20.3291 6.10658 20.2291 6.27988 20.0291 6.41988C19.8291 6.55988 19.4991 6.62988 19.0391 6.62988H16.2991ZM27.4617 13.6999V13.4799L27.2117 13.4599V7.21988C27.2117 6.85988 27.1184 6.57658 26.9317 6.36988C26.7451 6.16318 26.4884 6.05988 26.1617 6.05988C25.8751 6.05988 25.6451 6.12658 25.4717 6.25988C25.2984 6.38658 25.2117 6.54658 25.2117 6.73988V7.71988C25.2117 8.19988 25.0484 8.57318 24.7217 8.83988C24.4017 9.09988 23.9484 9.22988 23.3617 9.22988C22.8551 9.22988 22.4751 9.11658 22.2217 8.88988C21.9751 8.66318 21.8517 8.34988 21.8517 7.94988C21.8517 7.52318 22.0351 7.10318 22.4017 6.68988C22.7684 6.26988 23.3184 5.92318 24.0517 5.64988C24.7851 5.36988 25.6984 5.22988 26.7917 5.22988C28.1051 5.22988 29.0817 5.48318 29.7217 5.98988C30.3617 6.48988 30.6817 7.17658 30.6817 8.04988V13.0399C30.6817 13.1999 30.7151 13.3266 30.7817 13.4199C30.8551 13.5066 30.9584 13.5499 31.0917 13.5499C31.2184 13.5499 31.3184 13.5166 31.3917 13.4499C31.4651 13.3832 31.5284 13.3132 31.5817 13.2399C31.6284 13.1999 31.6717 13.1632 31.7117 13.1299C31.7517 13.0966 31.8017 13.0799 31.8617 13.0799C31.9617 13.0799 32.0317 13.1166 32.0717 13.1899C32.1117 13.2566 32.1317 13.3432 32.1317 13.4499C32.1317 13.7032 32.0384 13.9699 31.8517 14.2499C31.6717 14.5299 31.3984 14.7699 31.0317 14.9699C30.6717 15.1632 30.2217 15.2599 29.6817 15.2599C29.0151 15.2599 28.4784 15.1166 28.0717 14.8299C27.6651 14.5432 27.4617 14.1666 27.4617 13.6999ZM21.4517 12.8899C21.4517 12.0232 21.8384 11.3332 22.6117 10.8199C23.3917 10.2999 24.4917 10.0399 25.9117 10.0399C26.3184 10.0399 26.6784 10.0732 26.9917 10.1399C27.3117 10.1999 27.5817 10.2866 27.8017 10.3999L27.5317 11.1199C27.3451 11.0266 27.1617 10.9566 26.9817 10.9099C26.8017 10.8632 26.6051 10.8399 26.3917 10.8399C25.9584 10.8399 25.6151 10.9666 25.3617 11.2199C25.1151 11.4732 24.9917 11.8332 24.9917 12.2999C24.9917 12.7666 25.1051 13.1232 25.3317 13.3699C25.5584 13.6166 25.8517 13.7399 26.2117 13.7399C26.4851 13.7399 26.7451 13.6766 26.9917 13.5499C27.2451 13.4232 27.4484 13.2566 27.6017 13.0499L27.8217 13.7099C27.4817 14.2032 27.0084 14.5866 26.4017 14.8599C25.7951 15.1266 25.1451 15.2599 24.4517 15.2599C23.5584 15.2599 22.8351 15.0399 22.2817 14.5999C21.7284 14.1532 21.4517 13.5832 21.4517 12.8899ZM37.0952 9.62988C37.0952 8.64318 37.2318 7.82318 37.5052 7.16988C37.7785 6.50988 38.1352 6.01988 38.5752 5.69988C39.0152 5.37318 39.4952 5.20988 40.0152 5.20988C40.6752 5.20988 41.1852 5.40658 41.5452 5.79988C41.9052 6.18658 42.0852 6.75988 42.0852 7.51988C42.0852 8.24658 41.9352 8.78658 41.6352 9.13988C41.3352 9.49318 40.9485 9.66988 40.4752 9.66988C40.0018 9.66988 39.6418 9.54658 39.3952 9.29988C39.1552 9.04658 39.0318 8.69658 39.0252 8.24988V7.85988C39.0185 7.66658 38.9752 7.52318 38.8952 7.42988C38.8152 7.32988 38.6852 7.27988 38.5052 7.27988C38.3252 7.27988 38.1552 7.35988 37.9952 7.51988C37.8352 7.67318 37.7052 7.91318 37.6052 8.23988C37.5118 8.56658 37.4652 8.99658 37.4652 9.52988L37.0952 9.62988ZM37.2552 5.97988L37.4652 8.20988V13.1999C37.4652 13.4066 37.4985 13.5566 37.5652 13.6499C37.6385 13.7432 37.7818 13.8066 37.9952 13.8399L38.8052 13.9899C38.9785 14.0232 39.1052 14.0799 39.1852 14.1599C39.2652 14.2399 39.3052 14.3566 39.3052 14.5099C39.3052 14.6632 39.2518 14.7832 39.1452 14.8699C39.0385 14.9566 38.8818 14.9999 38.6752 14.9999H33.5752C33.3618 14.9999 33.2052 14.9566 33.1052 14.8699C33.0052 14.7832 32.9552 14.6632 32.9552 14.5099C32.9552 14.4032 32.9852 14.3099 33.0452 14.2299C33.1052 14.1432 33.2018 14.0732 33.3352 14.0199L33.6552 13.9199C33.7618 13.8799 33.8385 13.8099 33.8852 13.7099C33.9385 13.6099 33.9652 13.4432 33.9652 13.2099V7.91988C33.9652 7.73988 33.9385 7.60988 33.8852 7.52988C33.8318 7.44988 33.7485 7.39658 33.6352 7.36988L33.2552 7.31988C33.1285 7.27988 33.0352 7.22658 32.9752 7.15988C32.9218 7.08658 32.8952 6.99658 32.8952 6.88988C32.8952 6.75658 32.9318 6.64988 33.0052 6.56988C33.0852 6.48988 33.2218 6.41658 33.4152 6.34988L35.4652 5.59988C35.8518 5.44658 36.1318 5.34988 36.3052 5.30988C36.4785 5.26318 36.6118 5.23988 36.7052 5.23988C36.8652 5.23988 36.9852 5.29658 37.0652 5.40988C37.1518 5.52318 37.2152 5.71318 37.2552 5.97988ZM43.4438 6.57988L43.0338 6.43988C42.8871 6.38658 42.7804 6.31988 42.7138 6.23988C42.6471 6.15988 42.6138 6.06658 42.6138 5.95988C42.6138 5.80658 42.6671 5.68988 42.7738 5.60988C42.8804 5.52318 43.0171 5.47988 43.1838 5.47988H43.7738C43.9138 5.47988 44.0371 5.44988 44.1438 5.38988C44.2504 5.32988 44.3704 5.21988 44.5038 5.05988L45.9238 3.44988C46.0904 3.26321 46.2504 3.12321 46.4038 3.02988C46.5571 2.93655 46.7071 2.88988 46.8538 2.88988C47.0138 2.88988 47.1404 2.94321 47.2338 3.04988C47.3271 3.15655 47.3738 3.30655 47.3738 3.49988V11.7799C47.3738 12.2666 47.4604 12.6366 47.6338 12.8899C47.8138 13.1366 48.0638 13.2599 48.3838 13.2599C48.6304 13.2599 48.8204 13.2066 48.9538 13.0999C49.0871 12.9932 49.1938 12.8699 49.2738 12.7299C49.3604 12.5832 49.4438 12.4532 49.5238 12.3399C49.6104 12.2266 49.7238 12.1632 49.8638 12.1499C49.9704 12.1499 50.0571 12.1866 50.1238 12.2599C50.1904 12.3332 50.2238 12.4632 50.2238 12.6499C50.2171 13.1232 50.0738 13.5566 49.7938 13.9499C49.5138 14.3432 49.1238 14.6566 48.6238 14.8899C48.1304 15.1232 47.5671 15.2399 46.9338 15.2399C45.9671 15.2399 45.2138 15.0032 44.6738 14.5299C44.1404 14.0566 43.8738 13.3399 43.8738 12.3799V7.17988C43.8738 6.99988 43.8404 6.86988 43.7738 6.78988C43.7071 6.70318 43.5971 6.63318 43.4438 6.57988ZM46.1038 6.62988V5.47988H49.5738C49.7471 5.47988 49.8838 5.51658 49.9838 5.58988C50.0838 5.66318 50.1338 5.76658 50.1338 5.89988C50.1338 6.10658 50.0338 6.27988 49.8338 6.41988C49.6338 6.55988 49.3038 6.62988 48.8438 6.62988H46.1038ZM55.7464 5.96988V13.2099C55.7464 13.4366 55.7697 13.6032 55.8164 13.7099C55.8631 13.8099 55.9431 13.8799 56.0564 13.9199L56.3564 14.0199C56.4964 14.0732 56.5964 14.1399 56.6564 14.2199C56.7164 14.2999 56.7464 14.3966 56.7464 14.5099C56.7464 14.6632 56.6964 14.7832 56.5964 14.8699C56.4964 14.9566 56.3364 14.9999 56.1164 14.9999H51.8564C51.6431 14.9999 51.4864 14.9566 51.3864 14.8699C51.2864 14.7832 51.2364 14.6632 51.2364 14.5099C51.2364 14.4032 51.2664 14.3099 51.3264 14.2299C51.3864 14.1432 51.4831 14.0732 51.6164 14.0199L51.9364 13.9199C52.0431 13.8799 52.1197 13.8099 52.1664 13.7099C52.2197 13.6099 52.2464 13.4432 52.2464 13.2099V7.89988C52.2464 7.71318 52.2197 7.57988 52.1664 7.49988C52.1131 7.41988 52.0297 7.36658 51.9164 7.33988L51.5364 7.28988C51.4097 7.25658 51.3164 7.20658 51.2564 7.13988C51.2031 7.06658 51.1764 6.97318 51.1764 6.85988C51.1764 6.73318 51.2131 6.63318 51.2864 6.55988C51.3597 6.47988 51.4964 6.39988 51.6964 6.31988L53.8064 5.54988C54.0997 5.42988 54.3331 5.34988 54.5064 5.30988C54.6797 5.26318 54.8331 5.23988 54.9664 5.23988C55.2264 5.23988 55.4197 5.30988 55.5464 5.44988C55.6797 5.58318 55.7464 5.75658 55.7464 5.96988ZM53.7864 4.03988C53.1464 4.03988 52.6397 3.88655 52.2664 3.57988C51.8931 3.26655 51.7064 2.84655 51.7064 2.31988C51.7064 1.80655 51.8931 1.39655 52.2664 1.08988C52.6397 0.783213 53.1464 0.629883 53.7864 0.629883C54.4197 0.629883 54.9231 0.783213 55.2964 1.08988C55.6764 1.39655 55.8664 1.80655 55.8664 2.31988C55.8664 2.84655 55.6764 3.26655 55.2964 3.57988C54.9231 3.88655 54.4197 4.03988 53.7864 4.03988ZM67.2675 8.11988C67.2675 8.55988 67.1075 8.93318 66.7875 9.23988C66.4675 9.53988 66.0408 9.68988 65.5075 9.68988C64.9875 9.68988 64.5942 9.54988 64.3275 9.26988C64.0608 8.98318 63.9275 8.61658 63.9275 8.16988V7.81988C63.9275 7.37988 63.8142 7.02988 63.5875 6.76988C63.3608 6.50318 63.0575 6.36988 62.6775 6.36988C62.3508 6.36988 62.0542 6.47988 61.7875 6.69988C61.5208 6.91318 61.3075 7.22988 61.1475 7.64988C60.9875 8.06318 60.9075 8.57318 60.9075 9.17988C60.9075 9.98658 61.0442 10.6666 61.3175 11.2199C61.5908 11.7666 61.9642 12.1832 62.4375 12.4699C62.9175 12.7499 63.4608 12.8899 64.0675 12.8899C64.5742 12.8899 65.0175 12.8032 65.3975 12.6299C65.7842 12.4566 66.1208 12.1866 66.4075 11.8199C66.5542 11.6732 66.6675 11.5766 66.7475 11.5299C66.8342 11.4766 66.9175 11.4499 66.9975 11.4499C67.1108 11.4499 67.1942 11.5066 67.2475 11.6199C67.3008 11.7266 67.3275 11.8566 67.3275 12.0099C67.3075 12.5966 67.1075 13.1366 66.7275 13.6299C66.3475 14.1232 65.8275 14.5199 65.1675 14.8199C64.5142 15.1132 63.7575 15.2599 62.8975 15.2599C61.9108 15.2599 61.0342 15.0632 60.2675 14.6699C59.5008 14.2699 58.8942 13.7132 58.4475 12.9999C58.0008 12.2799 57.7775 11.4399 57.7775 10.4799C57.7775 9.47318 57.9975 8.57318 58.4375 7.77988C58.8775 6.98658 59.4942 6.35988 60.2875 5.89988C61.0875 5.43988 62.0275 5.20988 63.1075 5.20988C63.9675 5.20988 64.7075 5.34318 65.3275 5.60988C65.9475 5.86988 66.4242 6.21988 66.7575 6.65988C67.0975 7.09988 67.2675 7.58658 67.2675 8.11988ZM74.001 5.20988C75.074 5.20988 76.014 5.42318 76.821 5.84988C77.634 6.27658 78.264 6.86988 78.711 7.62988C79.164 8.38318 79.391 9.26318 79.391 10.2699C79.391 11.2099 79.154 12.0566 78.681 12.8099C78.214 13.5632 77.567 14.1599 76.741 14.5999C75.914 15.0399 74.957 15.2599 73.871 15.2599C72.797 15.2599 71.857 15.0466 71.051 14.6199C70.244 14.1866 69.614 13.5932 69.161 12.8399C68.707 12.0799 68.481 11.2032 68.481 10.2099C68.481 9.24988 68.714 8.39658 69.181 7.64988C69.654 6.89658 70.304 6.30318 71.131 5.86988C71.957 5.42988 72.914 5.20988 74.001 5.20988ZM74.711 14.0599C75.064 13.9999 75.344 13.8099 75.551 13.4899C75.757 13.1632 75.874 12.7066 75.901 12.1199C75.934 11.5266 75.864 10.7966 75.691 9.92988C75.531 9.07658 75.324 8.37988 75.071 7.83988C74.817 7.29318 74.527 6.89988 74.201 6.65988C73.881 6.41988 73.534 6.33658 73.161 6.40988C72.807 6.47658 72.527 6.67318 72.321 6.99988C72.121 7.31988 72.007 7.77318 71.981 8.35988C71.954 8.94658 72.021 9.67658 72.181 10.5499C72.347 11.3899 72.557 12.0832 72.811 12.6299C73.064 13.1766 73.351 13.5699 73.671 13.8099C73.997 14.0432 74.344 14.1266 74.711 14.0599Z" fill="#162E3C"/>
</svg>
