<svg width="80" height="16" viewBox="0 0 80 16" fill="none" xmlns="http://www.w3.org/2000/svg">
<path d="M6.7 14.9669C6.1933 14.9669 5.7567 14.9102 5.39 14.7969C5.03 14.6836 4.73 14.5702 4.49 14.4569C4.2567 14.3436 4.07 14.2869 3.93 14.2869C3.79 14.2869 3.6633 14.3236 3.55 14.3969C3.4433 14.4702 3.34 14.5536 3.24 14.6469C3.14 14.7402 3.0333 14.8236 2.92 14.8969C2.8133 14.9702 2.6933 15.0069 2.56 15.0069C2.3933 15.0069 2.2533 14.9569 2.14 14.8569C2.0333 14.7569 1.96 14.5936 1.92 14.3669L1.29 10.9669C1.27 10.8069 1.2933 10.6702 1.36 10.5569C1.4333 10.4369 1.5567 10.3469 1.73 10.2869C1.9167 10.2202 2.0767 10.2236 2.21 10.2969C2.35 10.3636 2.4733 10.4969 2.58 10.6969C2.9867 11.4902 3.4 12.1102 3.82 12.5569C4.24 13.0036 4.6667 13.3202 5.1 13.5069C5.5333 13.6869 5.9767 13.7769 6.43 13.7769C7.05 13.7769 7.54 13.6236 7.9 13.3169C8.2667 13.0036 8.4533 12.5769 8.46 12.0369C8.46 11.6769 8.3733 11.3569 8.2 11.0769C8.0333 10.7969 7.7067 10.5269 7.22 10.2669C6.7333 10.0002 6.0167 9.72019 5.07 9.42689C4.0367 9.10689 3.21 8.73358 2.59 8.30688C1.97 7.87358 1.52 7.36019 1.24 6.76689C0.966702 6.16689 0.830002 5.46689 0.830002 4.66688C0.830002 3.83358 1.03 3.09689 1.43 2.45688C1.8367 1.81021 2.4067 1.30688 3.14 0.946875C3.88 0.586875 4.7467 0.406875 5.74 0.406875C6.3133 0.406875 6.79 0.463545 7.17 0.576875C7.5567 0.683545 7.88 0.793545 8.14 0.906875C8.4 1.01355 8.62 1.06687 8.8 1.06687C8.96 1.06687 9.0933 1.01021 9.2 0.896875C9.3133 0.776875 9.43 0.660205 9.55 0.546875C9.6767 0.426875 9.8433 0.366875 10.05 0.366875C10.2167 0.366875 10.36 0.423545 10.48 0.536875C10.6 0.643545 10.7033 0.846875 10.79 1.14687L11.71 4.48689C11.77 4.69359 11.7633 4.87688 11.69 5.03688C11.6167 5.19018 11.4933 5.29689 11.32 5.35689C11.1333 5.41019 10.97 5.40358 10.83 5.33688C10.69 5.26359 10.5733 5.13688 10.48 4.95688C10.0467 4.11018 9.59 3.44359 9.11 2.95688C8.63 2.46355 8.14 2.11355 7.64 1.90688C7.1467 1.70022 6.6567 1.59687 6.17 1.59687C5.5633 1.59687 5.0867 1.77021 4.74 2.11688C4.3933 2.45688 4.22 2.90354 4.22 3.45688C4.22 3.80358 4.3 4.12358 4.46 4.41688C4.62 4.70358 4.9367 4.99019 5.41 5.27689C5.89 5.55689 6.59 5.86019 7.51 6.18689C8.5433 6.55359 9.3667 6.95359 9.98 7.38689C10.5933 7.81359 11.0333 8.30359 11.3 8.85689C11.5733 9.40359 11.71 10.0436 11.71 10.7769C11.71 11.5502 11.51 12.2536 11.11 12.8869C10.71 13.5202 10.1367 14.0269 9.39 14.4069C8.65 14.7802 7.7533 14.9669 6.7 14.9669ZM13.6391 6.24688L13.2291 6.10689C13.0824 6.05359 12.9757 5.98688 12.9091 5.90688C12.8424 5.82688 12.8091 5.73358 12.8091 5.62688C12.8091 5.47359 12.8624 5.35689 12.9691 5.27689C13.0757 5.19019 13.2124 5.14689 13.3791 5.14689H13.9691C14.1091 5.14689 14.2324 5.11689 14.3391 5.05689C14.4457 4.99689 14.5657 4.88689 14.6991 4.72689L16.1191 3.11688C16.2857 2.9302 16.4457 2.79021 16.5991 2.69688C16.7524 2.60355 16.9024 2.55687 17.0491 2.55687C17.2091 2.55687 17.3357 2.61021 17.4291 2.71688C17.5224 2.82355 17.5691 2.97354 17.5691 3.16688V11.4469C17.5691 11.9336 17.6557 12.3036 17.8291 12.5569C18.0091 12.8036 18.2591 12.9269 18.5791 12.9269C18.8257 12.9269 19.0157 12.8736 19.1491 12.7669C19.2824 12.6602 19.3891 12.5369 19.4691 12.3969C19.5557 12.2502 19.6391 12.1202 19.7191 12.0069C19.8057 11.8936 19.9191 11.8302 20.0591 11.8169C20.1657 11.8169 20.2524 11.8536 20.3191 11.9269C20.3857 12.0002 20.4191 12.1302 20.4191 12.3169C20.4124 12.7902 20.2691 13.2236 19.9891 13.6169C19.7091 14.0102 19.3191 14.3236 18.8191 14.5569C18.3257 14.7902 17.7624 14.9069 17.1291 14.9069C16.1624 14.9069 15.4091 14.6702 14.8691 14.1969C14.3357 13.7236 14.0691 13.0069 14.0691 12.0469V6.84689C14.0691 6.66689 14.0357 6.53688 13.9691 6.45688C13.9024 6.37018 13.7924 6.30018 13.6391 6.24688ZM16.2991 6.29689V5.14689H19.7691C19.9424 5.14689 20.0791 5.18359 20.1791 5.25689C20.2791 5.33018 20.3291 5.43359 20.3291 5.56689C20.3291 5.77359 20.2291 5.94689 20.0291 6.08688C19.8291 6.22688 19.4991 6.29689 19.0391 6.29689H16.2991ZM27.4617 13.3669V13.1469L27.2117 13.1269V6.88689C27.2117 6.52689 27.1184 6.24358 26.9317 6.03688C26.7451 5.83018 26.4884 5.72689 26.1617 5.72689C25.8751 5.72689 25.6451 5.79359 25.4717 5.92689C25.2984 6.05359 25.2117 6.21358 25.2117 6.40688V7.38689C25.2117 7.86689 25.0484 8.24019 24.7217 8.50689C24.4017 8.76689 23.9484 8.89688 23.3617 8.89688C22.8551 8.89688 22.4751 8.78358 22.2217 8.55688C21.9751 8.33018 21.8517 8.01688 21.8517 7.61688C21.8517 7.19018 22.0351 6.77019 22.4017 6.35689C22.7684 5.93689 23.3184 5.59019 24.0517 5.31689C24.7851 5.03689 25.6984 4.89689 26.7917 4.89689C28.1051 4.89689 29.0817 5.15018 29.7217 5.65688C30.3617 6.15688 30.6817 6.84359 30.6817 7.71689V12.7069C30.6817 12.8669 30.7151 12.9936 30.7817 13.0869C30.8551 13.1736 30.9584 13.2169 31.0917 13.2169C31.2184 13.2169 31.3184 13.1836 31.3917 13.1169C31.4651 13.0502 31.5284 12.9802 31.5817 12.9069C31.6284 12.8669 31.6717 12.8302 31.7117 12.7969C31.7517 12.7636 31.8017 12.7469 31.8617 12.7469C31.9617 12.7469 32.0317 12.7836 32.0717 12.8569C32.1117 12.9236 32.1317 13.0102 32.1317 13.1169C32.1317 13.3702 32.0384 13.6369 31.8517 13.9169C31.6717 14.1969 31.3984 14.4369 31.0317 14.6369C30.6717 14.8302 30.2217 14.9269 29.6817 14.9269C29.0151 14.9269 28.4784 14.7836 28.0717 14.4969C27.6651 14.2102 27.4617 13.8336 27.4617 13.3669ZM21.4517 12.5569C21.4517 11.6902 21.8384 11.0002 22.6117 10.4869C23.3917 9.96688 24.4917 9.70689 25.9117 9.70689C26.3184 9.70689 26.6784 9.74018 26.9917 9.80688C27.3117 9.86689 27.5817 9.95358 27.8017 10.0669L27.5317 10.7869C27.3451 10.6936 27.1617 10.6236 26.9817 10.5769C26.8017 10.5302 26.6051 10.5069 26.3917 10.5069C25.9584 10.5069 25.6151 10.6336 25.3617 10.8869C25.1151 11.1402 24.9917 11.5002 24.9917 11.9669C24.9917 12.4336 25.1051 12.7902 25.3317 13.0369C25.5584 13.2836 25.8517 13.4069 26.2117 13.4069C26.4851 13.4069 26.7451 13.3436 26.9917 13.2169C27.2451 13.0902 27.4484 12.9236 27.6017 12.7169L27.8217 13.3769C27.4817 13.8702 27.0084 14.2536 26.4017 14.5269C25.7951 14.7936 25.1451 14.9269 24.4517 14.9269C23.5584 14.9269 22.8351 14.7069 22.2817 14.2669C21.7284 13.8202 21.4517 13.2502 21.4517 12.5569ZM37.0952 9.29689C37.0952 8.31019 37.2318 7.49018 37.5052 6.83688C37.7785 6.17689 38.1352 5.68688 38.5752 5.36688C39.0152 5.04018 39.4952 4.87688 40.0152 4.87688C40.6752 4.87688 41.1852 5.07359 41.5452 5.46689C41.9052 5.85359 42.0852 6.42689 42.0852 7.18689C42.0852 7.91359 41.9352 8.45358 41.6352 8.80688C41.3352 9.16018 40.9485 9.33689 40.4752 9.33689C40.0018 9.33689 39.6418 9.21358 39.3952 8.96688C39.1552 8.71358 39.0318 8.36358 39.0252 7.91688V7.52689C39.0185 7.33359 38.9752 7.19019 38.8952 7.09689C38.8152 6.99689 38.6852 6.94688 38.5052 6.94688C38.3252 6.94688 38.1552 7.02689 37.9952 7.18689C37.8352 7.34019 37.7052 7.58018 37.6052 7.90688C37.5118 8.23358 37.4652 8.66359 37.4652 9.19689L37.0952 9.29689ZM37.2552 5.64689L37.4652 7.87688V12.8669C37.4652 13.0736 37.4985 13.2236 37.5652 13.3169C37.6385 13.4102 37.7818 13.4736 37.9952 13.5069L38.8052 13.6569C38.9785 13.6902 39.1052 13.7469 39.1852 13.8269C39.2652 13.9069 39.3052 14.0236 39.3052 14.1769C39.3052 14.3302 39.2518 14.4502 39.1452 14.5369C39.0385 14.6236 38.8818 14.6669 38.6752 14.6669H33.5752C33.3618 14.6669 33.2052 14.6236 33.1052 14.5369C33.0052 14.4502 32.9552 14.3302 32.9552 14.1769C32.9552 14.0702 32.9852 13.9769 33.0452 13.8969C33.1052 13.8102 33.2018 13.7402 33.3352 13.6869L33.6552 13.5869C33.7618 13.5469 33.8385 13.4769 33.8852 13.3769C33.9385 13.2769 33.9652 13.1102 33.9652 12.8769V7.58688C33.9652 7.40689 33.9385 7.27688 33.8852 7.19688C33.8318 7.11688 33.7485 7.06358 33.6352 7.03688L33.2552 6.98689C33.1285 6.94689 33.0352 6.89358 32.9752 6.82688C32.9218 6.75358 32.8952 6.66359 32.8952 6.55689C32.8952 6.42359 32.9318 6.31689 33.0052 6.23689C33.0852 6.15689 33.2218 6.08359 33.4152 6.01689L35.4652 5.26689C35.8518 5.11359 36.1318 5.01689 36.3052 4.97689C36.4785 4.93019 36.6118 4.90688 36.7052 4.90688C36.8652 4.90688 36.9852 4.96358 37.0652 5.07688C37.1518 5.19018 37.2152 5.38019 37.2552 5.64689ZM43.4438 6.24688L43.0338 6.10689C42.8871 6.05359 42.7804 5.98688 42.7138 5.90688C42.6471 5.82688 42.6138 5.73358 42.6138 5.62688C42.6138 5.47359 42.6671 5.35689 42.7738 5.27689C42.8804 5.19019 43.0171 5.14689 43.1838 5.14689H43.7738C43.9138 5.14689 44.0371 5.11689 44.1438 5.05689C44.2504 4.99689 44.3704 4.88689 44.5038 4.72689L45.9238 3.11688C46.0904 2.9302 46.2504 2.79021 46.4038 2.69688C46.5571 2.60355 46.7071 2.55687 46.8538 2.55687C47.0138 2.55687 47.1404 2.61021 47.2338 2.71688C47.3271 2.82355 47.3738 2.97354 47.3738 3.16688V11.4469C47.3738 11.9336 47.4604 12.3036 47.6338 12.5569C47.8138 12.8036 48.0638 12.9269 48.3838 12.9269C48.6304 12.9269 48.8204 12.8736 48.9538 12.7669C49.0871 12.6602 49.1938 12.5369 49.2738 12.3969C49.3604 12.2502 49.4438 12.1202 49.5238 12.0069C49.6104 11.8936 49.7238 11.8302 49.8638 11.8169C49.9704 11.8169 50.0571 11.8536 50.1238 11.9269C50.1904 12.0002 50.2238 12.1302 50.2238 12.3169C50.2171 12.7902 50.0738 13.2236 49.7938 13.6169C49.5138 14.0102 49.1238 14.3236 48.6238 14.5569C48.1304 14.7902 47.5671 14.9069 46.9338 14.9069C45.9671 14.9069 45.2138 14.6702 44.6738 14.1969C44.1404 13.7236 43.8738 13.0069 43.8738 12.0469V6.84689C43.8738 6.66689 43.8404 6.53688 43.7738 6.45688C43.7071 6.37018 43.5971 6.30018 43.4438 6.24688ZM46.1038 6.29689V5.14689H49.5738C49.7471 5.14689 49.8838 5.18359 49.9838 5.25689C50.0838 5.33018 50.1338 5.43359 50.1338 5.56689C50.1338 5.77359 50.0338 5.94689 49.8338 6.08688C49.6338 6.22688 49.3038 6.29689 48.8438 6.29689H46.1038ZM55.7464 5.63689V12.8769C55.7464 13.1036 55.7697 13.2702 55.8164 13.3769C55.8631 13.4769 55.9431 13.5469 56.0564 13.5869L56.3564 13.6869C56.4964 13.7402 56.5964 13.8069 56.6564 13.8869C56.7164 13.9669 56.7464 14.0636 56.7464 14.1769C56.7464 14.3302 56.6964 14.4502 56.5964 14.5369C56.4964 14.6236 56.3364 14.6669 56.1164 14.6669H51.8564C51.6431 14.6669 51.4864 14.6236 51.3864 14.5369C51.2864 14.4502 51.2364 14.3302 51.2364 14.1769C51.2364 14.0702 51.2664 13.9769 51.3264 13.8969C51.3864 13.8102 51.4831 13.7402 51.6164 13.6869L51.9364 13.5869C52.0431 13.5469 52.1197 13.4769 52.1664 13.3769C52.2197 13.2769 52.2464 13.1102 52.2464 12.8769V7.56689C52.2464 7.38019 52.2197 7.24688 52.1664 7.16688C52.1131 7.08688 52.0297 7.03359 51.9164 7.00689L51.5364 6.95688C51.4097 6.92358 51.3164 6.87359 51.2564 6.80689C51.2031 6.73359 51.1764 6.64019 51.1764 6.52689C51.1764 6.40019 51.2131 6.30019 51.2864 6.22689C51.3597 6.14689 51.4964 6.06689 51.6964 5.98689L53.8064 5.21689C54.0997 5.09689 54.3331 5.01689 54.5064 4.97689C54.6797 4.93019 54.8331 4.90688 54.9664 4.90688C55.2264 4.90688 55.4197 4.97688 55.5464 5.11688C55.6797 5.25018 55.7464 5.42358 55.7464 5.63689ZM53.7864 3.70688C53.1464 3.70688 52.6397 3.55358 52.2664 3.24688C51.8931 2.93354 51.7064 2.51355 51.7064 1.98688C51.7064 1.47355 51.8931 1.06355 52.2664 0.756875C52.6397 0.450215 53.1464 0.296875 53.7864 0.296875C54.4197 0.296875 54.9231 0.450215 55.2964 0.756875C55.6764 1.06355 55.8664 1.47355 55.8664 1.98688C55.8664 2.51355 55.6764 2.93354 55.2964 3.24688C54.9231 3.55358 54.4197 3.70688 53.7864 3.70688ZM67.2675 7.78688C67.2675 8.22688 67.1075 8.60019 66.7875 8.90689C66.4675 9.20689 66.0408 9.35689 65.5075 9.35689C64.9875 9.35689 64.5942 9.21689 64.3275 8.93689C64.0608 8.65019 63.9275 8.28359 63.9275 7.83688V7.48689C63.9275 7.04689 63.8142 6.69689 63.5875 6.43689C63.3608 6.17019 63.0575 6.03688 62.6775 6.03688C62.3508 6.03688 62.0542 6.14688 61.7875 6.36688C61.5208 6.58018 61.3075 6.89689 61.1475 7.31689C60.9875 7.73019 60.9075 8.24019 60.9075 8.84689C60.9075 9.65359 61.0442 10.3336 61.3175 10.8869C61.5908 11.4336 61.9642 11.8502 62.4375 12.1369C62.9175 12.4169 63.4608 12.5569 64.0675 12.5569C64.5742 12.5569 65.0175 12.4702 65.3975 12.2969C65.7842 12.1236 66.1208 11.8536 66.4075 11.4869C66.5542 11.3402 66.6675 11.2436 66.7475 11.1969C66.8342 11.1436 66.9175 11.1169 66.9975 11.1169C67.1108 11.1169 67.1942 11.1736 67.2475 11.2869C67.3008 11.3936 67.3275 11.5236 67.3275 11.6769C67.3075 12.2636 67.1075 12.8036 66.7275 13.2969C66.3475 13.7902 65.8275 14.1869 65.1675 14.4869C64.5142 14.7802 63.7575 14.9269 62.8975 14.9269C61.9108 14.9269 61.0342 14.7302 60.2675 14.3369C59.5008 13.9369 58.8942 13.3802 58.4475 12.6669C58.0008 11.9469 57.7775 11.1069 57.7775 10.1469C57.7775 9.14018 57.9975 8.24018 58.4375 7.44688C58.8775 6.65358 59.4942 6.02689 60.2875 5.56689C61.0875 5.10689 62.0275 4.87688 63.1075 4.87688C63.9675 4.87688 64.7075 5.01019 65.3275 5.27689C65.9475 5.53689 66.4242 5.88688 66.7575 6.32688C67.0975 6.76688 67.2675 7.25358 67.2675 7.78688ZM74.001 4.87688C75.074 4.87688 76.014 5.09019 76.821 5.51689C77.634 5.94359 78.264 6.53689 78.711 7.29689C79.164 8.05019 79.391 8.93019 79.391 9.93689C79.391 10.8769 79.154 11.7236 78.681 12.4769C78.214 13.2302 77.567 13.8269 76.741 14.2669C75.914 14.7069 74.957 14.9269 73.871 14.9269C72.797 14.9269 71.857 14.7136 71.051 14.2869C70.244 13.8536 69.614 13.2602 69.161 12.5069C68.707 11.7469 68.481 10.8702 68.481 9.87689C68.481 8.91689 68.714 8.06359 69.181 7.31689C69.654 6.56359 70.304 5.97018 71.131 5.53688C71.957 5.09688 72.914 4.87688 74.001 4.87688ZM74.711 13.7269C75.064 13.6669 75.344 13.4769 75.551 13.1569C75.757 12.8302 75.874 12.3736 75.901 11.7869C75.934 11.1936 75.864 10.4636 75.691 9.59689C75.531 8.74359 75.324 8.04689 75.071 7.50689C74.817 6.96019 74.527 6.56688 74.201 6.32688C73.881 6.08688 73.534 6.00358 73.161 6.07688C72.807 6.14358 72.527 6.34018 72.321 6.66688C72.121 6.98689 72.007 7.44019 71.981 8.02689C71.954 8.61359 72.021 9.34359 72.181 10.2169C72.347 11.0569 72.557 11.7502 72.811 12.2969C73.064 12.8436 73.351 13.2369 73.671 13.4769C73.997 13.7102 74.344 13.7936 74.711 13.7269Z" fill="white"/>
</svg>
